<?xml version="1.0" encoding="utf-8"?>
<!-- Generator: Adobe Illustrator 23.1.0, SVG Export Plug-In . SVG Version: 6.00 Build 0)  -->
<svg version="1.1" id="Layer_1" xmlns="http://www.w3.org/2000/svg" xmlns:xlink="http://www.w3.org/1999/xlink" x="0px" y="0px"
	 viewBox="0 0 104.2 105.7" style="enable-background:new 0 0 104.2 105.7;" xml:space="preserve">
<style type="text/css">
	.st0{fill:#FAB27B;}
	.st1{fill:none;stroke:#454545;stroke-width:3.1644;stroke-linecap:round;stroke-linejoin:round;}
</style>
<path id="패스_132" class="st0" d="M22.2,68.3l-4.1,4.7c0,0-12.4-3.1-11.9-6.2c0.5-3.1,8.8-16.1,8.8-16.1l10.9-7l10.6-2.3
	l12.7,1.3l10.9,4.8l10.4,14.4l1.2,4.9l-6,5.1h-6.4l-3.1-3.5v10.6l2,19.8l-5.2,3.1l-11.2,1.8l-12.7-0.9l-9.5-2.9l2.6-17.3L22.2,68.3z
	"/>
<g id="그룹_31" transform="translate(613.375 149.028)">
	<line id="선_38" class="st1" x1="-588.1" y1="-139.6" x2="-589.2" y2="-140.7"/>
	<line id="선_39" class="st1" x1="-593.4" y1="-145" x2="-594.6" y2="-146.1"/>
	<line id="선_40" class="st1" x1="-588.1" y1="-146.1" x2="-589.2" y2="-144.9"/>
	<line id="선_41" class="st1" x1="-593.5" y1="-140.7" x2="-594.6" y2="-139.6"/>
	<line id="선_42" class="st1" x1="-588.1" y1="-139.6" x2="-589.2" y2="-140.7"/>
	<line id="선_43" class="st1" x1="-593.4" y1="-145" x2="-594.6" y2="-146.1"/>
</g>
<g id="그룹_32" transform="translate(625.43 178.838)">
	<line id="선_44" class="st1" x1="-590.6" y1="-145.8" x2="-591.7" y2="-146.9"/>
	<line id="선_45" class="st1" x1="-596" y1="-151.2" x2="-597.1" y2="-152.3"/>
	<line id="선_46" class="st1" x1="-590.6" y1="-152.3" x2="-591.7" y2="-151.2"/>
	<line id="선_47" class="st1" x1="-596" y1="-146.9" x2="-597.1" y2="-145.8"/>
	<line id="선_48" class="st1" x1="-590.6" y1="-145.8" x2="-591.7" y2="-146.9"/>
	<line id="선_49" class="st1" x1="-596" y1="-151.2" x2="-597.1" y2="-152.3"/>
</g>
<g id="그룹_33" transform="translate(602.262 171.898)">
	<line id="선_50" class="st1" x1="-585.8" y1="-144.4" x2="-583.5" y2="-142.1"/>
	<line id="선_51" class="st1" x1="-592.3" y1="-150.8" x2="-590" y2="-148.6"/>
	<line id="선_52" class="st1" x1="-585.8" y1="-144.4" x2="-583.5" y2="-142.1"/>
	<line id="선_53" class="st1" x1="-592.3" y1="-150.8" x2="-590" y2="-148.6"/>
	<line id="선_54" class="st1" x1="-585.8" y1="-148.6" x2="-583.5" y2="-150.9"/>
	<line id="선_55" class="st1" x1="-592.3" y1="-142.1" x2="-590" y2="-144.4"/>
</g>
<path id="패스_51" class="st1" d="M39.1,103.7c-8.8,0-19.1-4-19.1-4s3.9-24.6,1.8-38.2"/>
<path id="패스_52" class="st1" d="M22.3,67.2l-3.5,5.2c0,0-8.7,1.2-12.4-6.5c0,0,6.5-14.8,10.6-17.6c4.1-2.8,13.8-5.9,13.8-5.9
	s2.8-1.4,8.3-1.4"/>
<path id="패스_53" class="st1" d="M39.1,103.7c8.8,0,19.1-4,19.1-4s-3.9-24.6-1.8-38.2"/>
<path id="패스_54" class="st1" d="M55.8,67.2l3.5,5.2c0,0,8.7,1.2,12.4-6.5c0,0-6.5-14.8-10.6-17.6s-13.8-5.9-13.8-5.9
	S44.5,41,39.1,41"/>
<path id="패스_55" class="st1" d="M28.8,43.1c0,0,10.6,9.8,20.6,0"/>
<path id="패스_56" class="st1" d="M7.4,51.1c0,0-3.6-0.9-4.6-3.9L10,34.6"/>
<path id="패스_57" class="st1" d="M24.2,17.6c0,0,11.6-1.7,14-6.5c4.4-1.8,9-2.7,13.7-2.8c4.5,0,9,0.8,13.3,2.3
	c0,0,17.8,8.5,19.4,9.4s17,27.2,17,27.2s-2.4,5-7,7c-4.6,2-10.9,2.2-10.9,2.2l-4.3-7.8"/>
<path id="패스_58" class="st1" d="M79.7,37.2c-1.3,8.3-2.8,38.7,2.6,57.5c-5.7,2.2-11.6,3.6-17.6,4.1"/>
<path id="패스_59" class="st1" d="M38.1,11.1c0,0,5.2,7.2,14.2,7.2s12.8-7.6,12.8-7.6"/>
</svg>
