<?xml version="1.0" encoding="utf-8"?>
<!-- Generator: Adobe Illustrator 23.1.0, SVG Export Plug-In . SVG Version: 6.00 Build 0)  -->
<svg version="1.1" id="Layer_1" xmlns="http://www.w3.org/2000/svg" xmlns:xlink="http://www.w3.org/1999/xlink" x="0px" y="0px"
	 viewBox="0 0 104.2 105.7" style="enable-background:new 0 0 104.2 105.7;" xml:space="preserve">
<style type="text/css">
	.st0{fill:#FAB27B;}
	.st1{fill:none;stroke:#454545;stroke-width:3.0918;stroke-linecap:round;stroke-linejoin:round;}
</style>
<path id="패스_131" class="st0" d="M84.4,56.8c0,0,8,0.3,8.2,7s-8.2,8.9-8.2,8.9v8.5c0,0,8.6-2,10.7-3.7s6.6-7.2,6.6-9.8
	s0.2-13.5-7-16.4s-10.6-3.9-10.6-3.9L84.4,56.8z"/>
<path id="사각형_42" class="st0" d="M44.7,44.5h39.8l0,0v34.3c0,5.5-4.5,10-10,10l0,0H54.6c-5.4,0-9.9-4.4-9.9-9.9l0,0L44.7,44.5
	L44.7,44.5z"/>
<circle id="타원_14" class="st1" cx="19.4" cy="19" r="15.9"/>
<line id="선_56" class="st1" x1="19.4" y1="35" x2="19.4" y2="52.2"/>
<circle id="타원_15" class="st1" cx="19.4" cy="58.8" r="6.5"/>
<path id="사각형_41" class="st1" d="M44.7,44.5h39.8l0,0v34.3c0,5.5-4.5,10-10,10l0,0H54.6c-5.4,0-9.9-4.4-9.9-9.9l0,0L44.7,44.5
	L44.7,44.5z"/>
<path id="패스_60" class="st1" d="M28.4,88.8h73.1l-9,12.8H36.7L28.4,88.8z"/>
<path id="패스_61" class="st1" d="M84.5,56.3c0,0,8.3-0.2,8.3,8.9c0,6.3-8.3,7.4-8.3,7.4"/>
<path id="패스_62" class="st1" d="M84.5,47.5c0,0,17.1,2.1,17.1,17S84.5,80.7,84.5,80.7"/>
<path id="패스_63" class="st1" d="M19.4,14.5V19h4.7"/>
<path id="패스_64" class="st1" d="M56.2,19c-0.3,2.8-1,5.5-2.3,8c-1.9,3.6-2.6,6.6-1.9,9.3"/>
<path id="패스_65" class="st1" d="M69,19c-0.3,2.8-1,5.5-2.3,8c-1.9,3.6-2.6,6.6-1.9,9.3"/>
<path id="패스_66" class="st1" d="M80.7,19c-0.3,2.8-1,5.5-2.3,8c-1.9,3.6-2.6,6.6-1.9,9.3"/>
</svg>
