<?xml version="1.0" encoding="utf-8"?>
<!-- Generator: Adobe Illustrator 23.1.0, SVG Export Plug-In . SVG Version: 6.00 Build 0)  -->
<svg version="1.1" id="Layer_1" xmlns="http://www.w3.org/2000/svg" xmlns:xlink="http://www.w3.org/1999/xlink" x="0px" y="0px"
	 viewBox="0 0 104.2 104.6" style="enable-background:new 0 0 104.2 104.6;" xml:space="preserve">
<style type="text/css">
	.st0{opacity:0.6;fill:#F68632;enable-background:new    ;}
	.st1{fill:none;stroke:#454545;stroke-width:3.1184;stroke-miterlimit:10;}
	.st2{fill:none;stroke:#454545;stroke-width:3.1184;stroke-linecap:round;stroke-linejoin:round;}
</style>
<circle id="타원_28" class="st0" cx="77.8" cy="65.4" r="12.9"/>
<circle id="타원_29" class="st0" cx="33.3" cy="14.7" r="5.1"/>
<g id="그룹_103" transform="translate(669.158 -153.531)">
	<circle id="타원_8" class="st1" cx="-628.6" cy="232.3" r="20.7"/>
	<circle id="타원_9" class="st1" cx="-617" cy="192" r="15.7"/>
	<circle id="타원_10" class="st1" cx="-591.2" cy="218.1" r="13.1"/>
	<circle id="타원_11" class="st1" cx="-587.8" cy="178.1" r="6.5"/>
	<circle id="타원_12" class="st1" cx="-635.8" cy="168.4" r="5.8"/>
	<circle id="타원_13" class="st1" cx="-649.3" cy="196.3" r="8.6"/>
	<path id="패스_48" class="st2" d="M-614.2,183.4c0,0,4.1,0.9,4.7,4.3"/>
	<path id="패스_49" class="st2" d="M-626.3,221.1c0,0,5.6,0,7.8,5.4"/>
	<path id="패스_50" class="st2" d="M-590.3,210.3c0,0,2.8-1.1,4.5,2.6"/>
	<g id="그룹_26" transform="translate(246.561 149.39)">
		<line id="선_14" class="st2" x1="-855.5" y1="13.2" x2="-856.6" y2="12"/>
		<line id="선_15" class="st2" x1="-860.8" y1="7.8" x2="-861.9" y2="6.7"/>
		<line id="선_16" class="st2" x1="-855.5" y1="6.7" x2="-856.6" y2="7.8"/>
		<line id="선_17" class="st2" x1="-860.8" y1="12" x2="-861.9" y2="13.2"/>
		<line id="선_18" class="st2" x1="-855.5" y1="13.2" x2="-856.6" y2="12"/>
		<line id="선_19" class="st2" x1="-860.8" y1="7.8" x2="-861.9" y2="6.7"/>
	</g>
	<g id="그룹_27" transform="translate(299.635 198.665)">
		<line id="선_20" class="st2" x1="-867.2" y1="2.3" x2="-868.3" y2="1.2"/>
		<line id="선_21" class="st2" x1="-872.5" y1="-3" x2="-873.6" y2="-4.1"/>
		<line id="선_22" class="st2" x1="-867.2" y1="-4.2" x2="-868.3" y2="-3"/>
		<line id="선_23" class="st2" x1="-872.5" y1="1.2" x2="-873.6" y2="2.3"/>
		<line id="선_24" class="st2" x1="-867.2" y1="2.3" x2="-868.3" y2="1.2"/>
		<line id="선_25" class="st2" x1="-872.5" y1="-3" x2="-873.6" y2="-4.1"/>
	</g>
	<g id="그룹_28" transform="translate(268.168 265.571)">
		<line id="선_26" class="st2" x1="-860.3" y1="-12.5" x2="-858" y2="-10.2"/>
		<line id="선_27" class="st2" x1="-866.7" y1="-18.9" x2="-864.4" y2="-16.6"/>
		<line id="선_28" class="st2" x1="-860.3" y1="-12.5" x2="-858" y2="-10.2"/>
		<line id="선_29" class="st2" x1="-866.7" y1="-18.9" x2="-864.4" y2="-16.6"/>
		<line id="선_30" class="st2" x1="-860.3" y1="-16.6" x2="-858" y2="-18.9"/>
		<line id="선_31" class="st2" x1="-866.7" y1="-10.2" x2="-864.4" y2="-12.5"/>
	</g>
	<g id="그룹_29" transform="translate(180.842 225.078)">
		<line id="선_32" class="st2" x1="-841" y1="-3.6" x2="-838.8" y2="-1.3"/>
		<line id="선_33" class="st2" x1="-847.5" y1="-10" x2="-845.2" y2="-7.7"/>
		<line id="선_34" class="st2" x1="-841" y1="-3.6" x2="-838.8" y2="-1.3"/>
		<line id="선_35" class="st2" x1="-847.5" y1="-10" x2="-845.2" y2="-7.7"/>
		<line id="선_36" class="st2" x1="-841" y1="-7.7" x2="-838.8" y2="-10"/>
		<line id="선_37" class="st2" x1="-847.4" y1="-1.3" x2="-845.2" y2="-3.6"/>
	</g>
</g>
</svg>
