<?xml version="1.0" encoding="utf-8"?>
<!-- Generator: Adobe Illustrator 23.1.0, SVG Export Plug-In . SVG Version: 6.00 Build 0)  -->
<svg version="1.1" id="Layer_1" xmlns="http://www.w3.org/2000/svg" xmlns:xlink="http://www.w3.org/1999/xlink" x="0px" y="0px"
	 viewBox="0 0 305.7 53.7" style="enable-background:new 0 0 305.7 53.7;" xml:space="preserve">
<style type="text/css">
	.st0{opacity:0.3;}
	.st1{opacity:0.15;}
</style>
<g id="그룹_1" transform="translate(319.385 325.036)" class="st0">
	<path id="패스_1" d="M-312.5-295.4v-6.8h13.4v-5.2h-13.4v-12.4h-5.2v24.4c0,6.4,5.2,11.6,11.6,11.6h9.8v-5.2h-9.8
		C-309.7-289-312.5-291.9-312.5-295.4z"/>
	<path id="패스_2" d="M-285.5-308.6h-2.8v-11.2h-5.2v36.1h5.2v-19.6h2.8c3.9,0,7.1,3.2,7.2,7.2v12.5h5.2v-12.5
		C-273.1-303-278.6-308.6-285.5-308.6z"/>
	<path id="패스_3" d="M-259.5-289c-2.3,0-5.6,0-6.3-6h18l0-2.6c0-4.2-2.3-12-10.6-12l0,0c-0.2,0-5.7-0.1-9.4,3.5
		c-2.3,2.3-3.5,5.4-3.3,8.6c0,9.2,3.9,13.9,11.7,13.9c7,0,9.2-4,9.4-4.5l-4.7-2.3C-254.9-290.5-256-289-259.5-289z M-264.3-302.4
		c2.1-2.1,5.6-2,5.7-2c3.1,0,4.5,2.3,5.1,4.2h-12.1C-265.3-301.1-264.9-301.8-264.3-302.4L-264.3-302.4z"/>
</g>
<g id="그룹_4" transform="translate(391.927 319.784)" class="st1">
	<g id="그룹_2" transform="translate(29.742 9.296)">
		<path id="패스_4" d="M-306.2-303.1v-16.7c0,0-2.2,21-11.6,31.5C-311-289.9-306.2-296-306.2-303.1z"/>
	</g>
	<g id="그룹_3">
		<path id="패스_5" d="M-304.9-319.8c-7.1,0-12.9,5.8-12.9,12.9v0v28.3c8-0.6,33-4.8,41.3-31.9v-9.3L-304.9-319.8z"/>
	</g>
</g>
<g id="그룹_5" transform="translate(494.046 332.79)" class="st1">
	<path id="패스_6" d="M-311-319.8c0,0-6.8,9-6.8,14.3s3.4,8,6.8,8s7.4-1.4,7.4-8S-311-319.8-311-319.8z"/>
</g>
<g id="그룹_6" transform="translate(437.55 319.784)" class="st0">
	<path id="패스_7" d="M-312.5-291.1v-28.7h-5.2v28.7c0,7,5.6,12.6,12.6,12.6h10.2v-5.2h-10.2C-309.2-283.7-312.5-287-312.5-291.1z
		"/>
	<path id="패스_8" d="M-268-283.7c-0.2-0.4-0.7-1.7-0.7-5.9c0-6.1-2.1-13.5-12.1-13.5c-3,0-12.2,0-12.2,13.5
		c-0.1,3,1.1,5.9,3.3,7.9c4.4,3.9,11.3,3.2,12.1,3.1l-0.6-5.2c-1.4,0.2-5.7,0.2-8-1.8c-1.1-1-1.7-2.5-1.6-4c0-7.6,3-8.2,7-8.2
		c3.4,0,6.8,0.6,6.8,8.2c0,5.3,0.7,8.2,2.4,9.8c1,0.9,2.4,1.4,3.8,1.4c0.2,0,0.4,0,0.6,0c0.2,0,0.3,0,0.5,0v-5.2c-0.2,0-0.4,0-0.6,0
		C-267.6-283.7-267.9-283.7-268-283.7z"/>
	<path id="패스_9" d="M-219.6-293.5c-6-7.6-15-10.6-15.6-10.8l-3.4-1.1v26.9h5.2v-19.4c5,2.5,13.8,8.5,13.8,19.4h5.2v-23.3h-5.2
		L-219.6-293.5z"/>
	<path id="패스_10" d="M-188-284.7v-34.4h-5.2v18.6c-2.3-1.7-5-2.6-7.8-2.6c-6.8,0-10.9,4.8-10.9,12.9c-0.1,3,1.1,5.9,3.3,7.9
		c3.7,3.4,9.4,3.8,11.5,3.8c0.5,0,0.8,0,0.8,0l-0.3-5.2c-1.6,0.1-6.1-0.2-8.4-2.4c-1.1-1.1-1.7-2.6-1.6-4.1c0-6.9,3.2-7.7,5.6-7.7
		c1.8,0,7.8,0.7,7.8,9.6v3.5c0,3.6,2.5,5.5,7.5,5.5v-5.2C-186.5-284.4-187.3-284.5-188-284.7L-188-284.7z"/>
	<path id="패스_11" d="M-184-278.4l5.2-0.1c0-0.1-0.1-9,5.5-14.6c3.1-3.1,7.4-4.7,12.8-4.7v-5.2c-6.9,0-12.4,2.1-16.5,6.3
		C-184.1-289.6-184-278.9-184-278.4z"/>
	<path id="패스_12" d="M-138.4-301.8v16.5c-13.2-1.8-14.6-16.9-14.6-17.6l-2.6,0.2l-2.6,0.2c0.6,7.4,5.5,21,19.9,22.5v0.3
		c0,4.6-3.8,8.4-8.4,8.4H-157v5.2h10.2c7.5,0,13.6-6.1,13.7-13.7v-22.1H-138.4z"/>
	<path id="패스_13" d="M-246-290.6c0,4-3.2,7.2-7.2,7.2h-1.3c-4.4,0-7.9-3.5-7.9-7.9v-11.2h-4.5v11.2c0,6.8,5.6,12.4,12.4,12.4
		h1.3c6.5,0,11.7-5.3,11.7-11.7v-12.3h-4.5L-246-290.6z"/>
</g>
</svg>
