<?xml version="1.0" encoding="utf-8"?>
<!-- Generator: Adobe Illustrator 23.1.0, SVG Export Plug-In . SVG Version: 6.00 Build 0)  -->
<svg version="1.1" id="Layer_1" xmlns="http://www.w3.org/2000/svg" xmlns:xlink="http://www.w3.org/1999/xlink" x="0px" y="0px"
	 viewBox="0 0 104.2 104.6" style="enable-background:new 0 0 104.2 104.6;" xml:space="preserve">
<style type="text/css">
	.st0{opacity:0.6;fill:#F68632;enable-background:new    ;}
	.st1{fill:none;stroke:#454545;stroke-width:3.1184;stroke-miterlimit:10;}
	.st2{fill:none;stroke:#454545;stroke-width:3.1184;stroke-linecap:round;stroke-linejoin:round;}
</style>
<circle id="타원_28" class="st0" cx="77.8" cy="65.4" r="12.9"/>
<circle id="타원_29" class="st0" cx="33.3" cy="14.7" r="5.1"/>
<circle id="타원_8" class="st1" cx="40.5" cy="78.7" r="20.7"/>
<circle id="타원_9" class="st1" cx="52.1" cy="38.5" r="15.7"/>
<circle id="타원_10" class="st1" cx="78" cy="64.5" r="13.1"/>
<circle id="타원_11" class="st1" cx="81.4" cy="24.5" r="6.5"/>
<circle id="타원_12" class="st1" cx="33.4" cy="14.8" r="5.8"/>
<circle id="타원_13" class="st1" cx="19.8" cy="42.8" r="8.6"/>
<path id="패스_48" class="st2" d="M54.9,29.9c0,0,4.1,0.9,4.7,4.3"/>
<path id="패스_49" class="st2" d="M42.9,67.6c0,0,5.6,0,7.8,5.4"/>
<path id="패스_50" class="st2" d="M78.8,56.8c0,0,2.8-1.1,4.5,2.6"/>
<g id="그룹_27" transform="translate(299.635 198.665)">
	<line id="선_20" class="st2" x1="-198" y1="-151.2" x2="-199.1" y2="-152.4"/>
	<line id="선_21" class="st2" x1="-203.3" y1="-156.6" x2="-204.5" y2="-157.7"/>
	<line id="선_22" class="st2" x1="-198" y1="-157.7" x2="-199.1" y2="-156.6"/>
	<line id="선_23" class="st2" x1="-203.3" y1="-152.4" x2="-204.5" y2="-151.2"/>
	<line id="선_24" class="st2" x1="-198" y1="-151.2" x2="-199.1" y2="-152.4"/>
	<line id="선_25" class="st2" x1="-203.3" y1="-156.6" x2="-204.5" y2="-157.7"/>
</g>
<g id="그룹_29" transform="translate(180.842 225.078)">
	<line id="선_32" class="st2" x1="-171.9" y1="-157.1" x2="-169.6" y2="-154.9"/>
	<line id="선_33" class="st2" x1="-178.3" y1="-163.5" x2="-176" y2="-161.3"/>
	<line id="선_34" class="st2" x1="-171.9" y1="-157.1" x2="-169.6" y2="-154.9"/>
	<line id="선_35" class="st2" x1="-178.3" y1="-163.5" x2="-176" y2="-161.3"/>
	<line id="선_36" class="st2" x1="-171.9" y1="-161.2" x2="-169.6" y2="-163.5"/>
	<line id="선_37" class="st2" x1="-178.3" y1="-154.8" x2="-176" y2="-157.1"/>
</g>
</svg>
