<?xml version="1.0" encoding="utf-8"?>
<!-- Generator: Adobe Illustrator 23.1.0, SVG Export Plug-In . SVG Version: 6.00 Build 0)  -->
<svg version="1.1" id="Layer_1" xmlns="http://www.w3.org/2000/svg" xmlns:xlink="http://www.w3.org/1999/xlink" x="0px" y="0px"
	 viewBox="0 0 305 437.7" style="enable-background:new 0 0 305 437.7;" xml:space="preserve">
<style type="text/css">
	.st0{fill:#FFE2CD;stroke:#999999;stroke-width:2.5;stroke-linecap:round;stroke-linejoin:round;stroke-miterlimit:10;}
	.st1{fill:none;stroke:#999999;stroke-width:2.5;stroke-linecap:round;stroke-linejoin:round;stroke-miterlimit:10;}
	.st2{fill:#FFFFFF;stroke:#999999;stroke-width:2.5;stroke-linecap:round;stroke-linejoin:round;stroke-miterlimit:10;}
	.st3{fill:#999999;stroke:#999999;stroke-width:2.5003;stroke-linecap:round;stroke-linejoin:round;stroke-miterlimit:10.0011;}
</style>
<g id="그룹_64" transform="translate(90.19 -37.514)">
	<path id="패스_82" class="st0" d="M15.5,199.7l4.4-29.2l4.8-4.1L6,157.6l-2-12.9l7.1-6.8l-15.3-17.3l-17.3-17.3l-18.1,1.9
		l-31,15.5l10.3,28.1l11.8,2.2l0.9,2h13.2l8.8-5.3l4.1,5.3l-1.8,4.5l9.2,6.8l-8.9,9.9l0,0l-3.6,4l-11.5-3.5l-9.6,25.8l8.9,18.5
		l27.5,1.6L15.5,199.7z"/>
	<path id="패스_83" class="st1" d="M-22.9,174.3l8.9-9.9l-9.2-6.8l1.8-4.5l-4.1-5.3l-8.8,5.3h-4.2v9.9L-22.9,174.3z"/>
	<path id="패스_84" class="st1" d="M-22.9,174.3l-15.6-11.3v-9.9h-9l9.5,21.6l11.5,3.5L-22.9,174.3z"/>
	<path id="패스_85" class="st1" d="M-4.2,120.7L11.1,138L4,144.7l2,12.9l18.7,8.8l-4.8,4.1l-4.4,29.2l9.2,6.8l6.7-16.6l21.4,5.1
		l-2.4,8.5l23.7,0.7l3.4,2.6l5.4,4.1h28.5l10-11L100,156.3l-27.3-36.2L56.5,73.6h-6.6L19.5,41.8L-1.1,69.2l-11.1-13.3l-40.6,12.6
		l13.3,36.9l18.1-1.9L-4.2,120.7z"/>
	<path id="패스_86" class="st1" d="M-51.3,336.6l8.5,2.4h7.1l4.1,11.6l19.3,2.3l8.4-2.3l9.9,2.3v-23.7l18.7-25.1l1.6-11.5l-18-1.8
		L6,290.5l-7.1,6.8l-10.5-10.8l-14.9,3.4l-7.1-8.8h-10.2l-2.4,7.5l-14.7,6.8l5.1,10.2l-17,22.2l12.6,5.9l-10.3,11.6l7.1,3.4
		L-51.3,336.6z"/>
	<path id="패스_87" class="st1" d="M6,262l-16.3-7.1l-8.1,11.9V281h4.1l3.1-5.8l3.1,3.4l8.5-3.4v-10.1L6,262z"/>
	<path id="패스_88" class="st1" d="M-43.8,281h10.2l7.1,8.8l14.9-3.4l10.5,10.8l7.1-6.8l2.3,0.2l-8.1-15.5l-8.5,3.4l-3.1-3.4
		l-3.1,5.8h-4.1v-14.2l8.1-11.9v-5.1l-8.1-8.6l1.4-11l5.8-9.5l-27.5-1.6l-6.6,11.8l-4.4-12.6l-14-1.5l-21.4,14.8l8.1,9.2l6.6-4.8
		l5.2,50.2l4.5,9l14.7-6.8L-43.8,281z"/>
	<path id="패스_89" class="st1" d="M-6.2,230.2l-5.1-9.5l-5.8,9.5l-1.4,11l8.1,8.6l6.4-6.3L-6.2,230.2z"/>
	<path id="패스_90" class="st1" d="M50.4,203.4l2.4-8.5l-21.4-5.1l-6.7,16.6l-9.2-6.8l-26.8,21l5.1,9.5l2.3,13.4l-6.4,6.3v5.1
		L6,262l-5.8,3.1v10.1l8.1,15.5l18,1.8l10.2-14.2l-14.6-7.8l2.8-20.7l11.5-14.9v-6.1h25.8l1.4-11.9l14.3-10.2l-3.4-2.6L50.4,203.4z"
		/>
	<path id="패스_91" class="st1" d="M6,356.6v-3.7l-9.9-2.3l-8.4,2.3l-19.3-2.3l-4.1-11.6h-7.1l-8.5-2.4l-12.2,11.9l-7.1-3.4
		l-14.8,16.5l8.9,57.6v20.7l20.7-11.1l13.3-2.9V414l18.5-6.6l-3,14l6.6,7.4l10.3-8.1l-3-12.6l14.8-17l11.9-5.1l0.5-10.4L6,356.6z"/>
	<path id="패스_92" class="st2" d="M103,355.6l8.8-12.5l-12.2-6.4v-7.5l-16.3,5.8l-24.4-4.7l-11.5-5.1l-7.5-13.9h-5.6l-9.6-7.1
		L6,329.1v27.5l8.1,19L13.7,386l15.5-6.7l6.6,14l19.9,3.7L69,371.9l13.3,5.2l10.8-16.8L103,355.6z"/>
	<path id="패스_93" class="st1" d="M103,355.6l-9.8,4.7l-10.8,16.8h19.9l16.2-23.6l1.2-2.9l-8-7.5L103,355.6z"/>
	<path id="패스_94" class="st1" d="M-61.1,357.3v12.5l6.1-2l2.2,6.1l14.3-1l2.9-10.5l-8.6-9.5l-4.2,4.7L-61.1,357.3z"/>
	<path id="패스_95" class="st1" d="M160.6,199.9l5.8-4.6h4.7l-2.4,8.8L160.6,199.9z"/>
	<path id="패스_96" class="st1" d="M196.8,206.4l4.1-2.4v4.1L196.8,206.4z"/>
	<path id="패스_97" class="st3" d="M206.6,213.8l-1.3-9.7l5.4,4L206.6,213.8z"/>
	<path id="패스_98" class="st1" d="M-41.5,463.7l12.5-13.6l16.3,2.7l6.4-2.7h9.5l7.8,3.1L4,466.8l-16.9,6.4H-37L-41.5,463.7z"/>
	<path id="패스_99" class="st1" d="M78,299.1h-8.6l-8.8,4.4l2,6.1L51.6,327l7.2,3.2l8.8,1.7L82.3,312L78,299.1z"/>
	<path id="패스_100" class="st1" d="M124.4,301l5.2-82l-8.1-19.2l-10,11H83l-5.4-4.1l-14.3,10.2l-1.4,11.9H36.2v6.1l-11.5,14.9
		l-2.8,20.7l14.6,7.8l-10.2,14.2l-1.6,11.5l9.6,7.1h5.6l7.5,13.9l4.3,1.9l10.9-17.3l-2-6.1l8.8-4.4H78l4.3,12.9l-14.6,19.9l15.6,3
		l16.3-5.8l10.2-10.5l10,5.3l3.6-2.9l6.2,5.1l-6.2-5.1l-3.6,2.9l-10-5.3l-10.2,10.5v7.5l12.2,6.4l8,7.5l3.2-7.4h5.2l1.5-18.5
		l5.2-23.6L124.4,301z"/>
</g>
</svg>
