<?xml version="1.0" encoding="utf-8"?>
<!-- Generator: Adobe Illustrator 23.1.0, SVG Export Plug-In . SVG Version: 6.00 Build 0)  -->
<svg version="1.1" id="Layer_1" xmlns="http://www.w3.org/2000/svg" xmlns:xlink="http://www.w3.org/1999/xlink" x="0px" y="0px"
	 viewBox="0 0 683.1 565.2" style="enable-background:new 0 0 683.1 565.2;" xml:space="preserve">
<style type="text/css">
	.st0{fill:none;stroke:#FFFFFF;stroke-width:5;stroke-linecap:round;stroke-linejoin:round;stroke-miterlimit:10;}
</style>
<polygon class="st0" points="154.8,264.7 173.7,260.2 189.9,251.2 218.7,235 232.2,218.8 227.7,177.4 239.4,163.9 239.4,149.1 
	243.4,139.1 248.4,126.6 284,112.2 291.6,96.4 300.6,96.4 324.5,123.8 342.9,149.5 363.6,136 363.6,123.8 351.5,100 378,82.4 
	378,70.8 369.5,56.3 378,49.6 383.4,49.6 398.3,43.8 398.3,28.5 408.1,24 403.6,14.5 418,5.9 422.1,12.3 436.5,13.6 441,33.4 
	453.1,25.8 462.6,29.8 470.3,29.8 475.2,39.7 497.3,30.7 509.4,19.5 524.7,22.6 524.7,32.5 537.3,34.3 540,46.9 531.5,56.3 
	536.4,65.8 543.2,93.7 522.5,97.8 537.8,109.4 537.3,122.5 563.8,128.4 570.2,149.9 550.3,167.1 573.8,177.9 573.8,194.1 
	576.5,206.2 573.8,223.3 563.8,235 549.5,256.1 548.1,267.9 553.5,277.3 548.5,290.8 560.7,296.2 598.5,280 607.5,273.7 
	653.8,254.4 660.6,248.9 670,258.4 664.7,270.1 677.7,299.8 677.7,323.2 662.8,326.8 653.4,321.9 632.3,342.5 633.6,359.2 
	621,368.2 618.8,380.8 612,387.1 617,406.5 646.2,411.9 647.1,424.9 642.6,430.8 630,456 614.7,467.6 604.3,460 593.5,460.9 
	595.8,467.6 600.3,471.3 605.3,478.9 597.2,483.4 583.7,478.5 582.3,486.1 577.8,487.9 577.3,493.8 567,496.5 553,496.5 
	538.2,503.2 529.7,511.3 532.3,524.8 522.5,530.2 506.7,530.2 509,540.5 503.5,549.5 505.4,555.8 494.1,560.3 483.3,555.4 
	469.4,555.4 457.2,540.5 446,540.5 441.5,522.1 451.4,513.1 445.5,508 447.3,499 436.2,481.3 427.2,499.3 409.8,505.9 396.3,494.8 
	388.2,477.7 369.6,496.9 360.6,499 362.7,508.3 348.6,521.5 335.4,520.9 331.5,528.4 333.9,535 311.1,538.6 289.2,536.2 
	267.6,517.9 256.5,534.1 244.2,532.6 232.8,535.9 222.6,519.7 202.8,502.6 207.6,496.6 189.3,460 189.9,439.9 172.8,422.5 
	167.4,424.6 167.7,432.4 152.7,446.5 141,451.9 143.1,459.4 133.5,468.1 117.6,457.3 108.6,463 90.9,445.6 100.2,436 88.2,421.3 
	98.4,406.6 101.7,394.9 111.6,384.4 106.8,375.1 105.9,356.2 113.1,346.3 107.7,343 102.3,335.5 84.3,327.1 63,335.8 57,335.5 
	47.7,324.1 36.6,323.8 21.6,316.3 8.7,303.1 12.6,300.4 21,298.9 30.6,291.1 25.8,280.6 36.6,268 55.8,257.2 61.5,241.6 71.1,229.6 
	64.8,225.1 67.5,204.7 76.5,205.6 102.9,229 128.7,251.5 "/>
<polyline class="st0" points="394.8,45.1 401.9,55.9 407.7,60 407.7,66.3 418,71.2 406.4,109.4 441.5,136.4 467.5,166.1 
	483.3,185.2 506.1,191.2 497.1,217.6 512.1,262 506.7,289 488.7,321.4 478.5,354.4 497.1,367.6 501.3,409.6 549.9,431.8 
	558.3,431.8 583.7,478.5 "/>
<polyline class="st0" points="475.2,39.7 462.3,73.6 480.3,118 480.3,134.2 467.1,134.2 462.3,131.8 456,153 "/>
<polyline class="st0" points="502.3,190.2 526.5,170.8 540.9,180.5 561.8,172.3 "/>
<polyline class="st0" points="204.2,243.2 230.7,261.8 241.5,242.2 257.7,245.8 294.9,215.8 294.9,210.4 305.7,194.8 305.7,180.5 
	320.1,158.2 342.9,149.5 "/>
<polyline class="st0" points="230.7,261.8 269.7,284.3 269.7,296.8 301.2,304.9 326.7,301.3 329.4,312.7 319.8,322.6 315.6,336.7 
	298.8,344.2 297.3,360.1 308.1,374.5 295.5,381.4 268.2,382.6 263.1,397 259.5,421 238.8,431.8 228.9,448.3 228.9,458.1 "/>
<polyline class="st0" points="189.8,442.6 195.9,442.6 217.8,459.7 242.1,456.1 247.5,463.6 241.5,473.5 252.6,502 262.5,502 
	267.6,517.9 "/>
<polyline class="st0" points="100.9,397.6 113.7,397.6 126.9,414.4 150.6,392.2 174,407.2 185.1,403.3 185.1,392.2 193.8,381.4 
	204.2,359.9 214.5,344.2 200.7,326.8 211.5,312.1 175.8,286 157.7,274.9 154.8,264.7 "/>
<polyline class="st0" points="211.5,312.1 228.9,329.2 253.2,337.3 286.5,343.6 297.3,360.1 "/>
<polyline class="st0" points="103.6,337.3 110.1,320.2 122.4,326.8 121.2,339.5 137.4,363.4 150.9,366.7 168.9,347.8 163.8,312.1 
	200.7,326.8 "/>
<polyline class="st0" points="193.8,381.4 214.5,392.2 209.7,412 223.2,439.6 265.2,437.5 274.5,422.8 317.4,432.1 325.5,428.2 
	329.4,458.1 359.7,466 369.6,496.9 "/>
<polyline class="st0" points="308.1,374.5 322.5,389.5 340.8,387.1 357.3,391.3 393,379.3 402.3,360.1 432,339.4 465.9,346 
	478.5,354.4 "/>
<polyline class="st0" points="402.3,360.1 418.2,382.9 435,429.4 444,445.3 459.3,449.5 459.3,467.2 468.9,469.9 472.5,477.1 
	489.2,477.1 506.1,462.4 528,465.4 529.5,480.3 546.4,499.5 "/>
<polyline class="st0" points="357.3,391.3 351.3,408.1 366.6,416.2 359,435.7 362.1,458.1 359.7,466 "/>
<polyline class="st0" points="329.4,312.7 349.8,305.5 381.9,316.3 398.1,317.8 406.8,334.3 419.6,348 "/>
<polyline class="st0" points="305.7,194.8 318.9,232 316.5,241 320.4,246.7 310.5,256 339,286 326.7,301.3 "/>
<polyline class="st0" points="339,286 348,274.3 372.6,276.7 406.8,274.3 424.5,272.5 424.5,289 400.7,322.8 "/>
<polyline class="st0" points="346.6,147.1 365.7,192.1 365.7,203.8 365.7,207.7 356.1,224.2 376.5,233.2 388.8,229.9 396,248.1 
	400.5,257.2 415.5,255.1 423,259.3 424.5,272.5 "/>
<polyline class="st0" points="363.6,136 378.6,149.5 399.3,170.8 402.3,185.5 414.9,184 423.3,194.8 433.2,194.8 436.5,194.8 
	467.5,166.1 "/>
<polyline class="st0" points="423,259.3 448.8,236.5 454.2,222.1 464.7,222.1 469.5,213.1 477.3,211.6 482.7,204.4 502.3,202.4 "/>
<polyline class="st0" points="508.9,278.2 522.6,272.5 536.1,278.2 550.8,272.5 "/>
<polyline class="st0" points="570,292.2 572.4,311.8 544.5,360.1 532,365.4 497.1,367.6 "/>
<polyline class="st0" points="563.2,327.8 582.3,335.2 585,345.7 575.4,356.2 582,367.6 596.4,367.6 618.8,380.8 "/>
<polyline class="st0" points="423,272.5 439.2,275.3 453.6,266.8 478.5,292.2 503.7,294.5 "/>
</svg>
