<?xml version="1.0" encoding="utf-8"?>
<!-- Generator: Adobe Illustrator 23.1.0, SVG Export Plug-In . SVG Version: 6.00 Build 0)  -->
<svg version="1.1" id="Layer_1" xmlns="http://www.w3.org/2000/svg" xmlns:xlink="http://www.w3.org/1999/xlink" x="0px" y="0px"
	 viewBox="0 0 73.69 104.31" style="enable-background:new 0 0 73.69 104.31;" xml:space="preserve">
<style type="text/css">
	.st0{fill:#1A9FDA;}
	.st1{fill:#F6FBFE;}
</style>
<g>
	<path class="st0" d="M36.37,104.31C12.86,104.22-4.02,82.38,1.93,59.53C6.39,42.43,16.54,28.3,26.31,14
		c2.71-3.97,5.72-7.74,8.64-11.56c0.86-1.13,1.72-2.5,3.25-0.49C51.89,20,65.92,38.02,71.88,60.31
		C77.94,82.95,60.1,104.4,36.37,104.31z M31.11,21.83c-4.18,7.31-8.36,14.61-12.52,21.93c-2.93,5.15-5.71,10.37-7.36,16.1
		c-3.61,12.51,2.59,27.11,14.56,32.05C14.73,67.08,26.84,44.94,31.11,21.83z"/>
	<path class="st1" d="M31.11,21.83c-4.27,23.11-16.39,45.25-5.32,70.08C13.82,86.97,7.62,72.37,11.23,59.86
		c1.65-5.72,4.43-10.95,7.36-16.1C22.76,36.45,26.94,29.14,31.11,21.83z"/>
</g>
</svg>
